<?xml version="1.0" encoding="utf-8"?>
<!-- Generator: Adobe Illustrator 26.0.3, SVG Export Plug-In . SVG Version: 6.00 Build 0)  -->
<svg version="1.1" id="Layer_1" xmlns="http://www.w3.org/2000/svg" xmlns:xlink="http://www.w3.org/1999/xlink" x="0px" y="0px"
	 viewBox="0 0 42 42" style="enable-background:new 0 0 42 42;" xml:space="preserve">
<style type="text/css">
	.st0{fill:#616161;}
</style>
<path className="st0" d="M42,21c0,11.6-9.4,21-21,21S0,32.6,0,21S9.4,0,21,0S42,9.4,42,21z M32.3,23c0-4-0.9-7.2-5.6-7.2
	c-1.8-0.1-3.5,0.9-4.4,2.4h-0.1v-2.1h-4.5v15h4.7v-7.4c0-2,0.4-3.9,2.8-3.9s2.4,2.2,2.4,4v7.3h4.7L32.3,23z M12.4,14.2L12.4,14.2
	c1.5,0,2.7-1.2,2.7-2.7l0,0c0-1.5-1.2-2.7-2.7-2.7S9.7,10,9.7,11.5S10.9,14.2,12.4,14.2 M14.8,16.2h-4.7v15h4.7V16.2z"/>
</svg>
