<?xml version="1.0" encoding="utf-8"?>
<!-- Generator: Adobe Illustrator 26.0.3, SVG Export Plug-In . SVG Version: 6.00 Build 0)  -->
<svg version="1.1" id="Layer_1" xmlns="http://www.w3.org/2000/svg" xmlns:xlink="http://www.w3.org/1999/xlink" x="0px" y="0px"
	 viewBox="0 0 42 42" style="enable-background:new 0 0 42 42;" xml:space="preserve">
<style type="text/css">
	.st0{fill:#616161;}
	.st1{fill:none;stroke:#FFFFFF;stroke-width:1.5;stroke-miterlimit:10;}
</style>
<path class="st0" d="M42,21c0,11.6-9.4,21-21,21S0,32.6,0,21S9.4,0,21,0S42,9.4,42,21z M21,10.1c-6,0-10.9,4.9-10.9,10.9
	c0,6,4.9,10.9,10.9,10.9c6,0,10.9-4.9,10.9-10.9C31.9,15,27,10.1,21,10.1z M11.6,21.8h3.1c0,1.2,0.2,2.4,0.4,3.4h-2.6
	C12,24.1,11.7,23,11.6,21.8z M21.8,15.3v-3.6c1.2,0.4,2.3,1.7,3,3.6H21.8z M25.3,16.8c0.3,1.1,0.4,2.2,0.5,3.4h-4v-3.4H25.3z
	 M20.2,11.7v3.6h-3C17.9,13.4,19,12.1,20.2,11.7z M20.2,16.8v3.4h-4c0.1-1.2,0.2-2.4,0.5-3.4H20.2z M14.7,20.2h-3.1
	c0.1-1.2,0.4-2.4,0.9-3.4h2.6C14.9,17.9,14.8,19,14.7,20.2z M16.2,21.8h4v3.4h-3.5C16.5,24.1,16.3,23,16.2,21.8z M20.2,26.7v3.6
	c-1.2-0.4-2.3-1.7-3-3.6H20.2z M21.8,30.3v-3.6h3C24.1,28.6,23,29.9,21.8,30.3z M21.8,25.2v-3.4h4c-0.1,1.2-0.2,2.4-0.5,3.4H21.8z
	 M27.3,21.8h3.1c-0.1,1.2-0.4,2.4-0.9,3.4h-2.6C27.1,24.1,27.2,23,27.3,21.8z M27.3,20.2c0-1.2-0.2-2.4-0.4-3.4h2.6
	c0.5,1,0.9,2.2,0.9,3.4H27.3z M28.5,15.3h-2.1c-0.4-1.1-0.9-2.1-1.4-2.9C26.4,13.1,27.6,14.1,28.5,15.3z M17.1,12.4
	c-0.6,0.8-1.1,1.8-1.4,2.9h-2.1C14.4,14.1,15.6,13.1,17.1,12.4z M13.5,26.7h2.1c0.4,1.1,0.9,2.1,1.4,2.9
	C15.6,28.9,14.4,27.9,13.5,26.7z M24.9,29.6c0.6-0.8,1.1-1.8,1.4-2.9h2.1C27.6,27.9,26.4,28.9,24.9,29.6z"/>
<g>
	<circle class="st1" cx="21" cy="68.4" r="10.2"/>
	<ellipse class="st1" cx="21" cy="68.4" rx="5.5" ry="10.2"/>
	<line class="st1" x1="10.8" y1="68.4" x2="31.2" y2="68.4"/>
	<line class="st1" x1="11.9" y1="63.4" x2="30.1" y2="63.4"/>
	<line class="st1" x1="11.9" y1="73.3" x2="30.1" y2="73.3"/>
	<line class="st1" x1="21" y1="58.2" x2="21" y2="78.6"/>
</g>
</svg>
