<?xml version="1.0" encoding="utf-8"?>
<!-- Generator: Adobe Illustrator 26.0.1, SVG Export Plug-In . SVG Version: 6.00 Build 0)  -->
<svg version="1.1" id="Layer_1" xmlns="http://www.w3.org/2000/svg" xmlns:xlink="http://www.w3.org/1999/xlink" x="0px" y="0px"
	 viewBox="0 0 3384 3384" style="enable-background:new 0 0 3384 3384;" xml:space="preserve">
<style type="text/css">
	.st0{fill:#0ACF83;}
	.st1{fill:#A259FF;}
	.st2{fill:#F24E1E;}
	.st3{fill:#FF7262;}
	.st4{fill:#1ABCFE;}
</style>
<path class="st0" d="M1280.3,2946.5c230,0,416.7-186.7,416.7-416.7v-416.7h-416.7c-230,0-416.7,186.7-416.7,416.7
	S1050.3,2946.5,1280.3,2946.5z"/>
<path class="st1" d="M863.6,1696.5c0-230,186.7-416.7,416.7-416.7H1697v833.3h-416.7C1050.3,2113.1,863.6,1926.5,863.6,1696.5z"/>
<path class="st2" d="M863.6,863.1c0-230,186.7-416.7,416.7-416.7H1697v833.3h-416.7C1050.3,1279.8,863.6,1093.1,863.6,863.1z"/>
<path class="st3" d="M1697,446.5h416.7c230,0,416.7,186.7,416.7,416.7s-186.7,416.7-416.7,416.7H1697V446.5z"/>
<path class="st4" d="M2530.3,1696.5c0,230-186.7,416.7-416.7,416.7c-230,0-416.7-186.7-416.7-416.7s186.7-416.7,416.7-416.7
	C2343.6,1279.8,2530.3,1466.5,2530.3,1696.5z"/>
</svg>
