<?xml version="1.0" encoding="utf-8"?>
<!-- Generator: Adobe Illustrator 26.0.1, SVG Export Plug-In . SVG Version: 6.00 Build 0)  -->
<svg version="1.1" id="Layer_1" xmlns="http://www.w3.org/2000/svg" xmlns:xlink="http://www.w3.org/1999/xlink" x="0px" y="0px"
	 viewBox="0 0 2500 631" style="enable-background:new 0 0 2500 631;" xml:space="preserve">
<style type="text/css">
	.st0{fill:#FFFFFF;}
</style>
<g>
	<path class="st0" d="M459.5,181.1c-19.5-19.9-40.6-35.1-63-45.7c-22.4-10.6-50.7-15.6-83.3-15.6c-26.2,0-51.2,4.7-74.4,13.9
		S195.3,156.1,178,173c-17.8,16.9-31.7,37.6-41.9,61.7c-10.1,24.1-15.2,50.7-15.2,80.3s5.1,56.2,15.2,80.3s24.1,44.4,41.9,61.3
		s38.5,30.4,61.7,39.7s48.6,13.9,75.2,13.9c28.3,0,53.3-3.8,74.4-11.8s39.3-19,54.5-32.5c10.1-9.3,19.4-20.7,27.5-34.2
		c8-13.9,14.4-29.2,19-46.1H311.5V284.2h291.7c1.7,6.8,3,14.8,4.2,24.9c1.3,10.1,1.7,19.4,1.7,29.2c0,40.2-5.9,76.5-17.8,109.9
		s-30,62.6-53.7,88.4c-26.6,28.3-58.3,49.9-95.5,65.5c-37.2,15.6-79.9,23.3-127.7,23.3c-43.1,0-83.7-7.6-121.7-23.3
		s-71.4-37.2-100.2-64.7c-28.3-27.5-50.7-60-67.6-97.7S0,360.3,0,315.5s8.5-86.2,24.9-124.3s38.9-70.6,67.6-98.1
		c28.3-27.5,61.7-48.6,100.2-64.3s79-23.2,121.7-23.2c49,0,92.6,8.5,130.2,25.4s70.2,40.2,97.7,69.8L459.5,181.1z M1209,453.3
		c0,52-19,93.8-57.1,125.6c-38.5,30.9-85.4,46.5-140.8,46.5c-49,0-92.6-14.4-130.2-43.1c-37.6-28.7-63.4-68.1-77.8-117.5l72.7-30
		c5.1,17.8,11.8,33.8,20.7,48.2c8.9,14.4,19,26.6,30.9,36.8c11.8,10.1,24.9,18.2,39.3,24.1c14.4,5.9,29.6,8.9,45.7,8.9
		c34.7,0,63.4-8.9,85.4-27.1c22-17.8,33-41.9,33-71.4c0-24.9-9.3-46.1-27.5-63.8c-16.9-16.9-49-33.8-96-49.9
		c-47.3-16.9-76.9-28.7-88.8-34.7c-63-32.1-94.3-79-94.3-141.6c0-43.5,17.3-80.7,52-111.6c35.5-30.9,78.6-46.5,130.2-46.5
		c45.2,0,84.5,11.4,117.5,34.7c33,22.8,55.4,51.2,66.4,85.4l-70.6,29.2c-6.8-22-19.9-40.6-39.3-55c-19.4-14.8-43.5-22-71.4-22
		c-30,0-55,8.5-75.2,24.9c-20.3,15.2-30.4,35.5-30.4,60c0,20.3,8,38,24.1,52.8c17.8,14.8,56.2,32.5,115,52.8
		c60,20.3,103.1,45.7,128.9,75.2C1196.3,373.8,1209,410.2,1209,453.3L1209,453.3z M1631.3,611.8h-72.7v-56.2h-3.4
		c-11.4,19.9-29.6,36.4-53.3,49.9c-24.1,13.1-49,19.9-74.8,19.9c-49.9,0-87.9-14.4-114.6-42.7s-40.2-68.9-40.2-121.3V206h76.1v250.3
		c1.7,66.4,35.1,99.3,100.2,99.3c30.4,0,55.8-12.3,76.1-36.8c20.3-24.5,30.4-54.1,30.4-88.4V206h76.1V611.8z M1805,66.1
		c0,14.8-5.1,27.5-15.6,38c-10.6,10.6-23.2,15.6-38,15.6c-14.8,0-27.5-5.1-38-15.6s-15.6-23.2-15.6-38s5.1-27.5,15.6-38
		s23.2-15.6,38-15.6c14.8,0,27.5,5.1,38,15.6C1800,38.6,1805,51.3,1805,66.1z M1789.4,206v405.8h-76.1V206H1789.4z M2023.2,618.6
		c-33,0-60.4-10.1-82.4-30.4c-22-20.3-33-49-33.4-85.4v-227h-71.4V206h71V81.7h76.1V206h99.3v69.7H1983v202.1
		c0,27.1,5.1,45.2,15.6,55c10.6,9.7,22.4,14.4,35.5,14.4c5.9,0,11.8-0.9,17.8-2.1c5.9-1.3,11-3.4,16.1-5.5l24.1,68.1
		C2073,614.8,2049.8,618.6,2023.2,618.6L2023.2,618.6z M2308.1,624.9c-59.6,0-108.6-20.3-147.5-61.3c-38.5-41-57.9-92.6-57.9-154.7
		c0-61.7,18.6-113.3,56.2-154.3c37.6-41,85.4-61.7,144.1-61.7c60,0,108.2,19.5,143.7,58.3s53.3,93.4,53.3,163.6l-0.8,8.5h-318.7
		c1.3,39.7,14.4,71.9,39.7,96c25.4,24.1,55.8,36.4,91.3,36.4c48.6,0,86.7-24.1,114.1-72.7l68.1,33c-18.2,34.2-43.5,60.9-75.7,80.3
		C2385.4,615.2,2348.7,624.9,2308.1,624.9L2308.1,624.9z M2186.3,359.9h232.9c-2.1-28.3-13.5-51.6-34.2-70.2
		c-20.7-18.6-48.6-27.9-83.3-27.9c-28.7,0-53.3,8.9-74,26.6C2206.6,306.6,2193.1,330.3,2186.3,359.9z"/>
</g>
</svg>
